<?xml version="1.0" encoding="UTF-8" standalone="no"?>
<!-- Created with Inkscape (http://www.inkscape.org/) -->
<svg xmlns:rdf="http://www.w3.org/1999/02/22-rdf-syntax-ns#"
	xmlns="http://www.w3.org/2000/svg"
	xmlns:cc="http://creativecommons.org/ns#"
	xmlns:xlink="http://www.w3.org/1999/xlink"
	xmlns:dc="http://purl.org/dc/elements/1.1/"
	version="1.1"
	x="0" y="0" width="600" height="360"
	viewBox="0 0 600 360">
	<defs>
		<radialGradient id="radialGradient5510" gradientUnits="userSpaceOnUse" cy="180.25" cx="300.32" gradientTransform="matrix(1,0,0,0.60191085,0,71.757363)" r="299.68">
			<stop stop-color="#0d51b7" stop-opacity="0.50196081" offset="0"/>
			<stop stop-color="#0d51b7" offset="1"/>
		</radialGradient>
		<filter id="filter5516" color-interpolation-filters="sRGB">
			<feGaussianBlur stdDeviation="0.3220652"/>
		</filter>
		<filter id="filter5578" height="1.5" width="1.5" color-interpolation-filters="sRGB" y="-0.25" x="-0.25">
			<feGaussianBlur stdDeviation="2" result="blur" in="SourceAlpha"/>
			<feColorMatrix type="matrix" values="1 0 0 0 0 0 1 0 0 0 0 0 1 0 0 0 0 0 0.5 0 " result="bluralpha"/>
			<feOffset in="bluralpha" result="offsetBlur" dx="4" dy="4"/>
			<feMerge>
				<feMergeNode in="offsetBlur"/>
				<feMergeNode in="SourceGraphic"/>
			</feMerge>
		</filter>
		<filter id="filter5799" height="1.5" width="1.5" color-interpolation-filters="sRGB" y="-0.25" x="-0.25">
			<feGaussianBlur in="SourceAlpha" stdDeviation="2" result="blur"/>
			<feColorMatrix type="matrix" values="1 0 0 0 0 0 1 0 0 0 0 0 1 0 0 0 0 0 0.5 0 " result="bluralpha"/>
			<feOffset in="bluralpha" result="offsetBlur" dx="4" dy="4"/>
			<feMerge>
				<feMergeNode in="offsetBlur"/>
				<feMergeNode in="SourceGraphic"/>
			</feMerge>
		</filter>
		<filter id="filter5837" height="1.5" width="1.5" color-interpolation-filters="sRGB" y="-0.25" x="-0.25">
			<feGaussianBlur stdDeviation="2" result="blur" in="SourceAlpha"/>
			<feColorMatrix type="matrix" values="1 0 0 0 0 0 1 0 0 0 0 0 1 0 0 0 0 0 0.5 0 " result="bluralpha"/>
			<feOffset in="bluralpha" result="offsetBlur" dx="4" dy="4"/>
			<feMerge>
				<feMergeNode in="offsetBlur"/>
				<feMergeNode in="SourceGraphic"/>
			</feMerge>
		</filter>
		<radialGradient id="radialGradient5158-0" cx="0.36139" xlink:href="#linearGradient3793-8" gradientUnits="userSpaceOnUse" cy="48.673" r="54.284" gradientTransform="matrix(0.54118729,0,0,0.54118728,14.832592,14.531422)"/>
		<linearGradient id="linearGradient5054-3" x1="-29.867" xlink:href="#linearGradient3765-9" gradientUnits="userSpaceOnUse" x2="94.523" y1="31.672" y2="31.672"/>
		<linearGradient id="linearGradient5052-0" x1="-23.578" xlink:href="#linearGradient3765-9" gradientUnits="userSpaceOnUse" x2="88.235" y1="31.672" y2="31.672"/>
		<linearGradient id="linearGradient3887-1" x1="383.18" xlink:href="#linearGradient5148-3" gradientUnits="userSpaceOnUse" x2="233.93" gradientTransform="matrix(1.5754362,0,0,1.5754362,-156.64443,-826.49158)" y1="1140.8" y2="1089.3"/>
		<filter id="filter3873-2" height="1.5" color-interpolation-filters="sRGB" y="-0.25">
			<feGaussianBlur stdDeviation="5" result="result6"/>
			<feComposite operator="atop" result="result8" in2="result6" in="SourceGraphic"/>
			<feComposite operator="over" result="result9" in2="SourceAlpha" in="result8"/>
			<feColorMatrix values="1 0 0 0 0 0 1 0 0 0 0 0 1 0 0 0 0 0 1 0 " result="result10"/>
			<feBlend mode="normal" in2="result6" in="result10"/>
		</filter>
		<linearGradient id="linearGradient3765-9">
			<stop stop-color="#CCC" offset="0"/>
			<stop stop-color="#909090" offset="1"/>
		</linearGradient>
		<linearGradient id="linearGradient3793-8">
			<stop stop-color="#e4e4ff" offset="0"/>
			<stop stop-color="#6c6cff" stop-opacity="0.75294119" offset="1"/>
		</linearGradient>
		<linearGradient id="linearGradient5148-3">
			<stop stop-color="#06deff" offset="0"/>
			<stop stop-color="#003cca" offset="0.73653"/>
			<stop stop-color="#007895" offset="1"/>
		</linearGradient>
		<filter id="filter11762" height="1.5" width="1.5" color-interpolation-filters="sRGB" y="-0.25" x="-0.25">
			<feGaussianBlur result="blur" stdDeviation="2" in="SourceAlpha"/>
			<feColorMatrix values="1 0 0 0 0 0 1 0 0 0 0 0 1 0 0 0 0 0 0.5 0 " type="matrix" result="bluralpha"/>
			<feOffset result="offsetBlur" dy="4" dx="4" in="bluralpha"/>
			<feMerge>
				<feMergeNode in="offsetBlur"/>
				<feMergeNode in="SourceGraphic"/>
			</feMerge>
		</filter>
	</defs>
	<metadata>
		<rdf:RDF>
			<cc:Work rdf:about="">
				<dc:format>image/svg+xml</dc:format>
				<dc:type rdf:resource="http://purl.org/dc/dcmitype/StillImage"/>
				<dc:title/>
			</cc:Work>
		</rdf:RDF>
	</metadata>
	<g transform="matrix(0.64377606,0,0,0.64377606,270.67662,-752.17407)">
		<path d="m86.612,31.672a54.284,54.284,0,1,1,-108.57,0,54.284,54.284,0,1,1,108.57,0z" fill-rule="nonzero" transform="matrix(0,2.8476766,-2.8476766,0,273.75211,631.68075)" fill="url(#radialGradient5158-0)"/>
		<text style="writing-mode:lr-tb;letter-spacing:0;text-anchor:start;word-spacing:0;text-align:start;" font-family="Santa Fe LET" font-size="144px" line-height="175%" filter="url(#filter3873-2)" font-stretch="normal" xml:space="preserve" font-variant="normal" y="771.03705" x="23.599503" font-weight="normal" font-style="normal" fill="url(#linearGradient3887-1)"><tspan style="writing-mode:lr-tb;text-anchor:start;text-align:start;" line-height="175%" y="771.03705" x="23.599503">DGS</tspan><tspan style="writing-mode:lr-tb;text-anchor:start;text-align:start;" line-height="175%" y="1023.037" x="23.599503">Previewer</tspan></text>
		<g transform="matrix(0.57357644,0.81915204,-0.81915204,0.57357644,671.12867,158.25577)" stroke-dasharray="none" stroke-miterlimit="4" fill="none">
			<path d="m88.235,31.672a55.906,55.906,0,1,1,-111.81,0,55.906,55.906,0,1,1,111.81,0z" transform="matrix(-2.7971562,0,0,-2.7971562,273.98812,812.33198)" stroke="url(#linearGradient5052-0)" stroke-width="1.75581741"/>
			<path d="m94.523,31.672a62.195,62.195,0,1,1,-124.39,0,62.195,62.195,0,1,1,124.39,0z" transform="matrix(2.6992314,0,0,2.6992314,96.29977,638.25146)" stroke="url(#linearGradient5054-3)" stroke-width="7.02326965"/>
		</g>
	</g>
	<text style="writing-mode:lr-tb;letter-spacing:0;text-anchor:start;word-spacing:0;text-align:start;" font-family="Arial" xml:space="preserve" font-size="13.19657421px" font-style="normal" font-stretch="normal" font-variant="normal" y="27.501274" x="21.577551" font-weight="normal" line-height="125%" fill="#0000ff"><tspan y="27.501274" x="21.577551">    &lt;filter <tspan fill="#00ff00">id=&quot;</tspan><tspan fill="#ffa600">filter3873-2</tspan><tspan fill="#00ff00">&quot; height=&quot;</tspan><tspan fill="#ffa600">1.5</tspan><tspan fill="#00ff00">&quot; y=&quot;</tspan><tspan fill="#ffa600">-0.25</tspan><tspan fill="#00ff00">&quot; color-interpolation-filters=&quot;</tspan><tspan fill="#ffa600">sRGB</tspan><tspan fill="#00ff00">&quot;</tspan>&gt;</tspan><tspan y="43.99699" x="21.577551">        &lt;feGaussianBlur <tspan fill="#00ff00">stdDeviation=&quot;</tspan><tspan fill="#ffa600">5</tspan><tspan fill="#00ff00">&quot; result=&quot;</tspan><tspan fill="#ffa600">result6</tspan><tspan fill="#00ff00">&quot;</tspan>/&gt;</tspan><tspan y="60.49271" x="21.577551">        &lt;feComposite <tspan fill="#00ff00">operator=&quot;</tspan><tspan fill="#ffa600">atop</tspan><tspan fill="#00ff00">&quot; result=&quot;</tspan><tspan fill="#ffa600">result8</tspan><tspan fill="#00ff00">&quot; in2=&quot;</tspan><tspan fill="#ffa600">result6</tspan><tspan fill="#00ff00">&quot; in=&quot;</tspan><tspan fill="#ffa600">SourceGraphic</tspan><tspan fill="#00ff00">&quot;</tspan>/&gt;</tspan><tspan y="76.988426" x="21.577551">        &lt;feComposite <tspan fill="#00ff00">operator=&quot;</tspan><tspan fill="#ffa600">over</tspan><tspan fill="#00ff00">&quot; result=&quot;</tspan><tspan fill="#ffa600">result9</tspan><tspan fill="#00ff00">&quot; in2=&quot;</tspan><tspan fill="#ffa600">SourceAlpha</tspan><tspan fill="#00ff00">&quot; in=&quot;</tspan><tspan fill="#ffa600">result8</tspan><tspan fill="#00ff00">&quot;</tspan>/&gt;</tspan><tspan y="93.484146" x="21.577551">        &lt;feColorMatrix <tspan fill="#00ff00">values=&quot;</tspan><tspan fill="#ffa600">1 0 0 0 0 0 1 0 0 0 0 0 1 0 0 0 0 0 1 0</tspan><tspan fill="#00ff00"> &quot; result=&quot;</tspan><tspan fill="#ffa600">result10</tspan><tspan fill="#00ff00">&quot;</tspan>/&gt;</tspan><tspan y="109.97987" x="21.577551">        &lt;feBlend <tspan fill="#00ff00">mode=&quot;</tspan><tspan fill="#ffa600">normal</tspan><tspan fill="#00ff00">&quot; in2=&quot;</tspan><tspan fill="#ffa600">result6</tspan><tspan fill="#00ff00">&quot; in=&quot;</tspan><tspan fill="#ffa600">result10</tspan><tspan fill="#00ff00">&quot;</tspan>/&gt;</tspan><tspan y="126.47558" x="21.577551">    &lt;/filter&gt;</tspan><tspan y="142.9713" x="21.577551">    &lt;linearGradient <tspan fill="#00ff00">id=&quot;</tspan><tspan fill="#ffa600">linearGradient3765-9</tspan><tspan fill="#00ff00">&quot;</tspan>&gt;</tspan><tspan y="159.46701" x="21.577551">        &lt;stop <tspan fill="#00ff00">stop-color=&quot;</tspan><tspan fill="#ffa600">#CCC</tspan><tspan fill="#00ff00">&quot; offset=&quot;</tspan><tspan fill="#ffa600">0</tspan><tspan fill="#00ff00">&quot;</tspan>/&gt;</tspan><tspan y="175.96274" x="21.577551">        &lt;stop <tspan fill="#00ff00">stop-color=&quot;</tspan><tspan fill="#ffa600">#909090</tspan><tspan fill="#00ff00">&quot; offset=&quot;</tspan><tspan fill="#ffa600">1</tspan><tspan fill="#00ff00">&quot;</tspan>/&gt;</tspan><tspan y="192.45845" x="21.577551">    &lt;/linearGradient&gt;</tspan><tspan y="208.95416" x="21.577551">    &lt;linearGradient id=&quot;<tspan fill="#ffa600">linearGradient3793-8</tspan><tspan fill="#00ff00">&quot;</tspan>&gt;</tspan><tspan y="225.44989" x="21.577551">        &lt;stop <tspan fill="#00ff00">stop-color=&quot;</tspan><tspan fill="#ffa600">#e4e4ff</tspan>&quot;<tspan fill="#00ff00"> offset=&quot;</tspan><tspan fill="#ffa600">0</tspan><tspan fill="#00ff00">&quot;</tspan>/&gt;</tspan><tspan y="241.9456" x="21.577551">        &lt;stop <tspan fill="#00ff00">stop-color=&quot;</tspan><tspan fill="#ffa600">#6c6cff</tspan>&quot; stop-opacity=&quot;<tspan fill="#ffa600">0.75294119</tspan><tspan fill="#00ff00">&quot; offset=&quot;</tspan><tspan fill="#ffa600">1</tspan><tspan fill="#00ff00">&quot;</tspan>/&gt;</tspan><tspan y="258.44131" x="21.577551">    &lt;/linearGradient&gt;</tspan><tspan y="274.93704" x="21.577551">    &lt;linearGradient <tspan fill="#00ff00">id=&quot;</tspan><tspan fill="#ffa600">linearGradient5148-3</tspan><tspan fill="#00ff00">&quot;</tspan>&gt;</tspan><tspan y="291.43277" x="21.577551">        &lt;stop <tspan fill="#00ff00">stop-color=&quot;</tspan><tspan fill="#ffa600">#06deff</tspan><tspan fill="#00ff00">&quot; offset=&quot;</tspan><tspan fill="#ffa600">0</tspan><tspan fill="#00ff00">&quot;</tspan>/&gt;</tspan><tspan y="307.92847" x="21.577551">        &lt;stop <tspan fill="#00ff00">stop-color=&quot;</tspan><tspan fill="#ffa600">#003cca</tspan><tspan fill="#00ff00">&quot; offset=&quot;</tspan><tspan fill="#ffa600">0.73653</tspan><tspan fill="#00ff00">&quot;</tspan>/&gt;</tspan><tspan y="324.42419" x="21.577551">        &lt;stop <tspan fill="#00ff00">stop-color=&quot;</tspan><tspan fill="#ffa600">#007895</tspan><tspan fill="#00ff00">&quot; offset=&quot;</tspan><tspan fill="#ffa600">1</tspan><tspan fill="#00ff00">&quot;</tspan>/&gt;</tspan><tspan y="340.91992" x="21.577551" fill="#0000ff">    &lt;/linearGradient&gt;</tspan><tspan y="357.41562" x="21.577551" fill="#0000ff">&lt;/defs&gt;</tspan></text>
	<g transform="matrix(0.64377606,0,0,0.64377606,333.92453,-392.73076)">
		<path d="m86.612,31.672a54.284,54.284,0,1,1,-108.57,0,54.284,54.284,0,1,1,108.57,0z" fill-rule="nonzero" transform="matrix(0,2.8476766,-2.8476766,0,273.75211,631.68075)" fill="url(#radialGradient5158-0)"/>
		<text style="writing-mode:lr-tb;letter-spacing:0;text-anchor:start;word-spacing:0;text-align:start;" font-family="Santa Fe LET" xml:space="preserve" font-size="144px" font-style="normal" filter="url(#filter3873-2)" font-stretch="normal" font-variant="normal" y="771.03705" x="23.599503" font-weight="normal" line-height="175%" fill="url(#linearGradient3887-1)"><tspan style="writing-mode:lr-tb;text-anchor:start;text-align:start;" line-height="175%" y="771.03705" x="23.599503">DGS</tspan><tspan style="writing-mode:lr-tb;text-anchor:start;text-align:start;" line-height="175%" y="1023.037" x="23.599503">Previewer</tspan></text>
		<g transform="matrix(0.57357644,0.81915204,-0.81915204,0.57357644,671.12867,158.25577)" stroke-dasharray="none" stroke-miterlimit="4" fill="none">
			<path d="m88.235,31.672a55.906,55.906,0,1,1,-111.81,0,55.906,55.906,0,1,1,111.81,0z" transform="matrix(-2.7971562,0,0,-2.7971562,273.98812,812.33198)" stroke="url(#linearGradient5052-0)" stroke-width="1.75581741"/>
			<path d="m94.523,31.672a62.195,62.195,0,1,1,-124.39,0,62.195,62.195,0,1,1,124.39,0z" transform="matrix(2.6992314,0,0,2.6992314,96.29977,638.25146)" stroke="url(#linearGradient5054-3)" stroke-width="7.02326965"/>
		</g>
	</g>
	<g opacity="0.62265063" fill-rule="nonzero" fill-opacity="0.40498089" transform="matrix(1.3580537,0,0,1.3580537,1.5654082,28.18733)" filter="url(#filter5516)" fill="#006aff">
		<path id="path4086" d="M86.835,11.78,82.76,2.6476c-18.683,8.4864-35.161,21.421-48.102,37.179-12.95,15.749-22.41,34.379-27.086,54.234-0.0000016,0.000007-0.0000031,0.000013-0.0000047,0.00002-4.658,19.859-4.4731,40.692,0.080606,60.453,4.5436,19.763,13.473,38.527,26.268,54.255,0.000009,0.00001,0.000017,0.00002,0.000026,0.00003,12.806,15.719,29.329,28.222,47.659,36.634,18.326,8.4195,38.527,12.78,58.672,12.25,20.145-0.54117,40.025-5.966,57.779-15.295,17.757-9.3232,33.457-22.586,45.263-38.767,13.144-18.068,21.375-38.846,31.181-58.445,9.8419-19.564,21.87-38.801,39.978-50.719,6.4175-4.2352,13.518-7.4933,21.009-9.1092,7.488-1.6149,15.388-1.581,22.727,0.57072,7.3344,2.1496,14.115,6.4537,18.81,12.487,0.00001,0.00001,0.00001,0.000021,0.00002,0.000031,4.6922,6.0261,7.2511,13.823,6.5662,21.445-0.37124,4.1537-1.6829,8.2416-3.912,11.77-2.2282,3.5276-5.3815,6.4958-9.1046,8.3937-0.00001,0-0.00002,0.00001-0.00004,0.00002-3.5948,1.8313-7.7503,2.6612-11.739,2.0502-3.9849-0.60951-7.7962-2.7038-10.223-5.9341-1.1229-1.4934-1.9533-3.2184-2.3349-5.0468,0-0.00001,0-0.00003-0.00001-0.00004-0.38154-1.8278-0.3107-3.7624,0.28689-5.5333,0.59713-1.7702,1.7286-3.3749,3.2503-4.4656,1.5208-1.0905,3.4365-1.6556,5.306-1.4799,1.9265,0.18023,3.7772,1.1558,5.0184,2.6534,1.2415,1.4974,1.8634,3.5049,1.6816,5.4519,0.20662-1.9445-0.38867-3.97-1.6237-5.4993-1.2352-1.5292-3.0966-2.5454-5.0614-2.755-1.9063-0.20259-3.8725,0.34596-5.4494,1.4473-1.5764,1.1014-2.7626,2.7328-3.4009,4.5512-0.63798,1.818-0.73945,3.8099-0.36833,5.7022,0,0.00002,0,0.00003,0.00001,0.00004,0.37111,1.892,1.2021,3.6821,2.3417,5.2365,2.4666,3.3621,6.3598,5.5809,10.483,6.2618,4.1218,0.67975,8.4269-0.11261,12.172-1.9658,0.00001-0.00001,0.00002-0.00001,0.00003-0.00002,3.8763-1.917,7.1808-4.9405,9.5388-8.5735,2.3572-3.6325,3.7761-7.8508,4.2149-12.162,0.80183-7.916-1.726-16.041-6.5483-22.389-4.8217-6.3437-11.801-10.923-19.422-13.254-7.6183-2.3292-15.82-2.4848-23.614-0.89831-7.7922,1.5856-15.18,4.8491-21.847,9.1372-18.767,12.104-31.398,31.553-41.516,51.212-10.156,19.628-18.573,40.175-31.588,57.505-11.619,15.519-26.992,28.147-44.244,36.932-17.255,8.78-36.461,13.754-55.724,14.014-19.262,0.27157-38.537-4.17-55.928-12.422-0.000012,0-0.000023-0.00001-0.000035-0.00002-17.387-8.259-32.963-20.363-44.851-35.366-0.000008-0.00001-0.000016-0.00002-0.000023-0.00003-11.919-14.97-20.12-32.84-24.179-51.54-4.049-18.704-3.9731-38.316,0.6233-56.771,0.000003-0.000012,0.000006-0.000024,0.000009-0.000037,4.579-18.464,13.678-35.771,25.94-50.319,12.271-14.54,27.759-26.385,45.07-33.96z"/>
		<use id="use4092" xlink:href="#path4086" height="360" width="600" y="0" x="0"/>
		<use id="use4094" xlink:href="#use4092" transform="matrix(0.99876808,0.04962182,-0.04962182,0.99876808,0.63869383,-3.8613408)" height="360" width="600" y="0" x="0"/>
		<use id="use4096" xlink:href="#use4094" transform="matrix(0.99967518,-0.02548598,0.02548598,0.99967518,-0.25326474,1.9936698)" height="360" width="600" y="0" x="0"/>
		<use id="use4098" xlink:href="#use4096" transform="matrix(0.99992227,0.01246826,-0.01246826,0.99992227,0.1423808,-0.97275656)" height="360" width="600" y="0" x="0"/>
		<use xlink:href="#use4098" transform="matrix(0.99969912,-0.02452888,0.02452888,0.99969912,-0.24467087,1.9186708)" height="360" width="600" y="0" x="0"/>
	</g>
	<rect opacity="0.9" style="color:#000000;enable-background:accumulate;" fill-rule="evenodd" height="364.00" width="504.00" y="-1.0" x="-1.0" fill="url(#radialGradient5510)"/>
	<text style="writing-mode:lr-tb;letter-spacing:0;text-anchor:start;word-spacing:0;text-align:start;" font-family="Arial" xml:space="preserve" font-size="10px" font-style="normal" font-stretch="normal" font-variant="normal" y="320.55142" x="274.86743" font-weight="normal" line-height="125%" fill="#000000"><tspan x="274.86743" y="320.55142"/></text>
	<text style="writing-mode:lr-tb;letter-spacing:0;text-anchor:start;word-spacing:0;text-align:start;" font-family="Santa Fe LET" xml:space="preserve" font-size="32px" font-style="normal" filter="url(#filter5837)" font-stretch="normal" font-variant="normal" y="39.957581" x="26.723225" font-weight="normal" line-height="125%" fill="#ffffff"><tspan x="26.723225" y="39.957581">DGS Previewer {Version}</tspan></text>
	<rect stroke-linejoin="round" style="enable-background:accumulate;color:#000000;" stroke-dasharray="none" fill-rule="evenodd" transform="matrix(1,0,0,1.4900183,0,-96.27845)" height="70.626" filter="url(#filter5578)" width="273.59" stroke="#FFF" stroke-miterlimit="4" y="196.48" x="163.52" stroke-width="25" fill="#FFF"/>
	<text style="writing-mode:lr-tb;letter-spacing:0;text-anchor:middle;word-spacing:0;text-align:center;" font-family="Arial" xml:space="preserve" font-size="18px" font-style="normal" filter="url(#filter5799)" font-stretch="normal" font-variant="normal" y="132.21632" x="300.31812" font-weight="normal" line-height="125%" fill="#ffffff"><tspan x="300.31812" y="132.21632">Drag the DGS Previewer icon to</tspan><tspan x="300.31812" y="154.71632">the Applications folder to install it.</tspan></text>
	<g fill-rule="evenodd" transform="matrix(3.0153244,-0.20465177,0.33740213,1.8289496,-715.84558,-139.21455)" filter="url(#filter11762)" fill="#000">
		<path d="m285.93,222.57,6.4594,7.6339c2.5165-2.9276,5.5025-5.5207,9.0951-6.8624,2.6254-1.0214,5.6584-1.3953,8.7094-1.0336h0.00001c2.2865,0.27211,4.5928,0.93865,6.7954,1.951v0.00001c0.67643,0.31119,1.342,0.65329,1.9902,1.0367h0.00001c0.17968,0.10628,0.35777,0.21547,0.53344,0.32967,0.0464,0.0301,0.0927,0.0607,0.13866,0.0918,0.0135,0.007,0.0258,0.0144,0.037,0.0233,0.004,0.003,0.008,0.007,0.0117,0.0102l0.00003,0.00003-0.00003-0.00003c-0.004-0.004-0.007-0.007-0.0109-0.0111-0.01-0.0106-0.0183-0.0223-0.026-0.0351-0.0349-0.0433-0.0705-0.0862-0.10644-0.12897h-0.00001c-0.13549-0.1613-0.27566-0.31954-0.41838-0.47552v-0.00001c-0.51484-0.5627-1.0665-1.0992-1.6428-1.6116-1.8769-1.6694-4.0427-3.0993-6.4513-4.1652h-0.00001c-3.2449-1.4326-6.929-2.1418-10.726-1.8965-5.1268,0.37778-10.12,2.3302-14.388,5.1434z"/>
		<path d="m317.97,211.32-9.7193,17.48c3.8908-0.54974,8.7351,1.2592,13.407,4.0626,1.6495,1.0034,3.2679,2.1312,4.8351,3.3883,0.45825,0.36762,0.91117,0.74406,1.3566,1.1361,0.12027,0.10586,0.23986,0.21252,0.35846,0.3211,0.031,0.0284,0.062,0.0569,0.0929,0.0857,0.0163,0.008,0.0274,0.0184,0.033,0.031,0.00002,0.00004,0.00003,0.00006,0.00003,0.00006s-0.00001-0.00002-0.00002-0.00006c-0.006-0.0127-0.006-0.0279-0.00095-0.0452-0.00097-0.0422-0.002-0.0846-0.004-0.12706-0.005-0.16165-0.0126-0.32378-0.021-0.48586-0.0312-0.6003-0.0795-1.2044-0.13857-1.8085-0.20204-2.0662-0.54342-4.16-1.0239-6.261-1.3045-5.907-3.8343-12.094-9.1758-17.777z"/>
	</g>
</svg>
